<?xml version="1.0" encoding="UTF-8"?>
<svg xmlns="http://www.w3.org/2000/svg" id="Layer_1" data-name="Layer 1" width="512" height="512" viewBox="0 0 24 24"><path d="M4.378,17.921C1.742,16.168,0,13.174,0,9.777,0,4.386,4.386,0,9.777,0c1.639,0,3.271,.425,4.717,1.229l.821,.456-.836,.427c-2.05,1.046-4.141,3.783-4.423,6.733-.372,.193-.723,.419-1.055,.669v-.013c0-3.3,2.045-6.293,4.21-7.791-1.088-.471-2.239-.709-3.434-.709C4.938,1,1,4.938,1,9.777c0,2.994,1.509,5.639,3.803,7.224-.169,.293-.307,.602-.425,.92Zm19.622,1.079c0-2.757-2.243-5-5-5-.069,0-.138,.003-.211,.009-.659-2.349-2.813-4.009-5.289-4.009-3.033,0-5.5,2.468-5.5,5.5,0,.316,.033,.635,.103,.982-1.29,.692-2.103,2.031-2.103,3.518,0,2.206,1.794,4,4,4h9c2.757,0,5-2.243,5-5Zm-6.086-4.347l.089,.465s.852-.118,.997-.118c2.206,0,4,1.794,4,4s-1.794,4-4,4H10c-1.654,0-3-1.346-3-3,0-1.223,.734-2.312,1.87-2.775l.406-.166-.112-.424c-.112-.427-.164-.787-.164-1.135,0-2.481,2.019-4.5,4.5-4.5,2.154,0,4.011,1.536,4.414,3.653Z"/></svg>
