<?xml version="1.0" encoding="UTF-8"?>
<svg xmlns="http://www.w3.org/2000/svg" id="Layer_1" data-name="Layer 1" width="512" height="512" viewBox="0 0 24 24"><path d="M19.584,15.001c-.789-1.809-2.589-3.001-4.584-3.001-2.757,0-5,2.243-5,5v.036c-1.694,.243-3,1.704-3,3.464,0,1.93,1.57,3.5,3.5,3.5h9c2.481,0,4.5-2.019,4.5-4.5,0-2.453-1.973-4.454-4.416-4.499Zm-.084,7.999H10.5c-1.379,0-2.5-1.122-2.5-2.5s1.121-2.5,2.527-2.5h.557l-.06-.553c-.016-.146-.024-.296-.024-.447,0-2.206,1.794-4,4-4,1.692,0,3.209,1.072,3.772,2.667l.118,.333h.609c1.93,0,3.5,1.57,3.5,3.5s-1.57,3.5-3.5,3.5Zm-12.445-6.765c-.331-.311-.634-.655-.899-1.036l-4.336,2.524-.504-.864,4.334-2.523c-.355-.73-.569-1.521-.631-2.336H0v-1H5.019c.064-.831,.284-1.62,.633-2.335L1.316,6.142l.504-.864,4.337,2.525c.451-.65,1.018-1.214,1.67-1.662L5.309,1.808l.865-.503,2.519,4.333c.708-.34,1.486-.556,2.307-.619V0h1V5.02c.808,.063,1.589,.277,2.305,.62l2.521-4.335,.865,.503-2.519,4.333c.647,.443,1.216,1.003,1.672,1.66l4.336-2.524,.504,.864-4.334,2.523c.305,.629,.505,1.305,.595,1.999-.353-.164-.717-.305-1.096-.409-.122-.526-.312-1.035-.584-1.504-.981-1.697-2.807-2.75-4.765-2.75-3.032,0-5.5,2.467-5.5,5.5,0,1.087,.316,2.139,.916,3.041,.283,.425,.622,.798,.999,1.122-.305,.165-.593,.355-.86,.572Z"/></svg>
